<?xml version="1.0" standalone="no"?>
<!DOCTYPE svg PUBLIC "-//W3C//DTD SVG 20010904//EN"
 "http://www.w3.org/TR/2001/REC-SVG-20010904/DTD/svg10.dtd">
<svg version="1.0" xmlns="http://www.w3.org/2000/svg"
 width="1754pt" height="1220pt" viewBox="0 0 877.000000 610.000000"
 preserveAspectRatio="xMidYMid meet">

<g transform="translate(0.000000,610.000000) scale(0.100000,-0.100000)"
fill="#FFFF" stroke="#FFFF" stroke-width="60">
<path d="M1028 5558 c-137 -13 -186 -59 -212 -201 l-7 -38 -60 7 c-57 6 -62 5
-89 -21 -33 -31 -34 -38 -101 -385 l-41 -215 -3 -415 c-1 -228 -3 -496 -4
-596 l-1 -181 -42 -12 c-91 -27 -156 -63 -190 -104 -30 -38 -33 -48 -33 -107
1 -97 48 -182 193 -345 64 -71 121 -137 129 -146 16 -19 96 -357 128 -539 17
-98 40 -181 85 -305 54 -149 73 -190 162 -331 93 -149 110 -170 229 -283 l129
-122 222 -80 c151 -53 335 -108 568 -169 l345 -89 337 -168 c327 -163 337
-168 351 -205 14 -34 18 -37 39 -29 13 5 285 115 605 245 l582 235 558 -225
c307 -124 580 -234 606 -245 l48 -19 17 39 c17 39 26 44 347 204 l330 164 335
87 c218 56 417 116 569 169 l233 82 131 123 c121 113 138 134 230 280 88 138
108 178 163 330 46 125 69 206 84 295 22 129 105 497 120 533 5 12 66 86 137
165 152 171 197 252 198 354 0 53 -4 65 -33 102 -34 41 -99 77 -188 103 l-42
12 -5 317 c-3 174 -6 442 -6 596 l-1 280 -50 265 c-28 146 -57 279 -65 297
-23 50 -55 67 -119 59 l-54 -7 -12 53 c-30 123 -68 165 -164 182 -59 11 -209
9 -255 -4 -84 -22 -151 -114 -187 -256 -21 -81 -29 -94 -59 -94 -12 0 -60 -27
-107 -59 -80 -56 -88 -66 -151 -170 -57 -95 -68 -123 -84 -202 l-18 -92 -40
-12 c-22 -6 -64 -24 -92 -39 -46 -23 -57 -35 -87 -94 -55 -110 -133 -379 -145
-506 -6 -60 -9 -111 -7 -113 4 -5 13 55 21 152 8 86 95 375 140 466 32 62 37
67 102 97 85 39 108 41 99 10 -3 -13 -8 -75 -11 -138 -3 -63 -8 -135 -10 -160
-2 -29 -1 -38 4 -25 5 11 11 81 14 155 4 85 16 182 32 263 25 119 31 135 91
236 59 98 71 113 140 161 42 29 92 56 111 60 33 8 34 7 29 -18 -3 -15 -10 -62
-16 -106 -5 -43 -12 -81 -15 -86 -11 -19 -35 -293 -33 -393 1 -109 1 -107 8
48 4 88 15 196 23 240 9 44 23 136 31 205 19 151 47 263 86 340 52 102 107
131 254 131 202 1 251 -30 286 -181 9 -39 10 -55 2 -58 -35 -11 -149 -114
-196 -178 -68 -89 -71 -95 -96 -211 -20 -94 -26 -308 -11 -378 5 -24 0 -41
-25 -80 -31 -51 -64 -191 -50 -214 12 -19 8 -749 -4 -771 -6 -11 -8 -20 -6
-20 22 0 27 68 27 410 0 203 -3 375 -7 381 -3 6 -1 45 6 88 15 87 56 163 123
225 l42 39 -46 -36 -47 -36 -6 31 c-14 69 -6 268 14 361 11 50 25 102 30 115
20 46 121 169 172 208 71 55 84 61 150 69 67 8 98 -5 116 -52 6 -15 34 -147
61 -293 l50 -265 5 -593 c4 -558 4 -593 -13 -587 -48 15 -357 -201 -626 -439
-49 -44 -103 -91 -119 -105 -25 -23 -28 -23 -22 -6 11 30 62 270 75 352 15 96
51 155 111 182 25 11 38 20 30 20 -32 0 -81 -36 -110 -82 -20 -32 -33 -70 -41
-120 -21 -134 -67 -335 -87 -372 -10 -20 -54 -77 -98 -127 -78 -88 -80 -90
-229 -162 -271 -132 -487 -292 -625 -466 l-52 -65 48 55 c167 190 368 340 612
457 73 35 135 63 137 63 2 0 2 -8 -2 -17 -3 -10 9 2 27 27 59 79 202 228 314
328 195 172 476 388 562 432 80 40 81 40 120 25 33 -13 34 -15 10 -11 -62 8
-136 -35 -253 -147 l-52 -51 59 -38 c103 -68 210 -215 210 -290 0 -17 5 -28
14 -28 7 0 53 34 101 76 110 96 150 170 150 274 0 83 -18 108 -110 155 -80 40
-70 47 14 10 34 -16 69 -41 86 -63 26 -32 30 -45 30 -97 0 -99 -50 -189 -193
-348 -65 -73 -208 -240 -319 -372 -429 -514 -576 -648 -867 -791 -60 -30 -104
-54 -97 -54 22 0 208 99 297 158 184 124 336 276 657 663 95 114 174 205 175
204 2 -2 -17 -90 -42 -197 -24 -106 -54 -248 -66 -315 -15 -89 -38 -170 -84
-295 -55 -152 -75 -192 -162 -329 -91 -144 -109 -167 -225 -275 l-126 -119
-234 -82 c-152 -53 -352 -113 -569 -169 l-335 -87 -330 -163 c-313 -156 -331
-166 -350 -203 l-20 -39 -598 242 c-589 237 -598 241 -592 266 4 14 85 177
181 363 l174 338 166 211 c160 205 170 215 304 319 133 104 144 111 321 185
175 74 198 80 453 135 225 48 273 61 291 81 17 17 31 56 50 143 21 96 36 137
77 210 27 49 73 115 102 145 l51 55 -53 -50 c-34 -31 -73 -85 -107 -146 -45
-79 -59 -116 -80 -215 -16 -70 -34 -127 -45 -137 -12 -14 -93 -35 -286 -76
-255 -55 -278 -61 -453 -135 -178 -74 -188 -80 -324 -187 -138 -107 -146 -115
-309 -324 l-168 -215 -175 -339 c-96 -186 -175 -344 -175 -350 0 -29 -20 1
-78 117 -256 513 -282 557 -461 786 -164 210 -171 218 -310 326 -136 106 -147
112 -324 187 -173 72 -196 79 -451 133 -194 42 -273 63 -286 76 -12 12 -29 65
-46 138 -22 98 -36 137 -80 215 -33 61 -73 114 -106 146 l-53 50 51 -55 c85
-91 147 -215 178 -355 20 -89 33 -126 50 -144 20 -20 67 -33 292 -81 255 -54
278 -61 451 -133 175 -74 188 -81 321 -184 135 -105 142 -113 306 -323 l168
-215 165 -320 c160 -311 200 -392 192 -399 -2 -2 -272 -111 -599 -244 l-595
-240 -14 35 c-13 32 -36 45 -350 202 l-336 168 -350 91 c-234 62 -424 118
-573 171 l-222 80 -124 118 c-114 108 -133 131 -225 278 -88 140 -107 181
-161 330 -45 124 -68 207 -85 305 -13 74 -42 213 -64 308 -23 95 -41 177 -41
183 0 6 68 -71 150 -171 339 -408 501 -571 690 -697 77 -52 270 -153 291 -153
7 0 -38 25 -100 55 -290 142 -438 278 -874 800 -110 132 -251 296 -312 365
-142 158 -189 243 -190 341 0 52 4 72 19 88 26 28 30 21 10 -18 -24 -49 -15
-126 27 -208 27 -53 52 -84 117 -141 46 -40 88 -72 95 -69 6 2 15 22 19 45 7
42 73 154 121 204 14 15 53 45 86 67 l60 39 -52 49 c-125 117 -192 156 -253
147 -26 -4 -25 -3 9 12 l37 16 79 -40 c86 -43 360 -253 550 -421 118 -104 271
-262 330 -341 19 -25 31 -37 28 -27 -4 9 -5 17 -3 17 24 0 301 -146 401 -212
109 -71 152 -108 265 -224 74 -76 124 -125 110 -109 -13 17 -74 81 -135 143
-134 139 -298 252 -512 352 -139 66 -144 70 -227 158 -47 50 -95 110 -107 134
-22 43 -57 187 -85 353 -20 116 -59 186 -117 209 -22 9 -42 14 -44 12 -2 -2
14 -11 37 -20 50 -20 96 -88 106 -155 8 -63 70 -351 79 -376 10 -24 19 -31
-135 105 -279 246 -582 459 -632 446 -17 -4 -18 29 -14 587 l5 592 45 240 c58
305 63 325 88 353 63 67 241 -16 352 -163 70 -94 65 -83 92 -202 25 -108 31
-254 16 -368 -7 -49 -7 -49 -23 -28 -8 12 -29 32 -45 44 -16 13 -7 0 19 -27
27 -27 61 -71 76 -99 29 -51 57 -167 46 -186 -12 -19 -8 -762 4 -789 l12 -25
-6 25 c-8 34 -9 763 -1 787 10 32 -19 148 -50 200 -26 42 -29 54 -23 98 16
112 10 260 -15 368 -27 119 -22 108 -94 204 -47 63 -79 92 -201 180 -7 5 29
136 44 160 36 54 95 73 236 74 112 1 166 -12 209 -48 67 -56 119 -212 145
-429 9 -76 23 -170 32 -209 18 -84 29 -330 16 -364 -10 -24 -10 -24 -37 22
-16 26 -30 47 -32 47 -7 0 15 -40 47 -85 18 -25 32 -64 39 -105 6 -36 22 -119
37 -185 23 -109 25 -133 20 -271 -3 -84 -13 -191 -22 -238 -12 -65 -14 -94 -6
-114 l11 -27 -5 30 c-3 17 1 66 10 110 8 44 18 150 22 235 5 142 4 165 -20
275 -50 234 -57 270 -57 280 10 158 10 213 -5 346 -9 84 -19 157 -21 161 -5 7
-32 183 -34 210 0 16 76 -17 144 -64 69 -47 81 -60 139 -158 61 -101 65 -112
91 -245 15 -77 31 -203 36 -280 l9 -140 -4 145 c-3 80 -7 160 -11 178 -8 42 7
42 95 2 60 -28 69 -36 99 -91 54 -98 139 -385 148 -499 4 -52 11 -104 15 -115
7 -16 8 -13 5 10 -3 17 -8 68 -11 115 -8 106 -97 399 -149 493 -33 59 -41 66
-104 96 -38 17 -78 31 -88 31 -18 0 -23 13 -38 96 -17 86 -26 109 -84 206 -61
101 -71 113 -145 164 -44 30 -93 58 -108 61 -37 7 -42 15 -63 95 -61 230 -150
290 -398 266z m-437 -2091 c34 -14 190 -143 195 -162 2 -5 -25 -29 -60 -53
-89 -59 -196 -210 -196 -274 0 -16 -4 -28 -10 -28 -5 0 -47 32 -91 72 -65 57
-88 84 -112 137 -37 78 -46 156 -24 201 9 17 14 37 11 45 -6 14 46 45 115 70
44 15 126 12 172 -8z m7647 14 c-13 -4 -1 -13 41 -29 32 -12 76 -38 97 -56 38
-33 39 -35 39 -102 0 -108 -37 -177 -143 -270 -47 -41 -88 -74 -93 -74 -5 0
-9 10 -9 23 -1 34 -37 106 -87 173 -40 52 -72 80 -161 141 -16 11 -14 14 13
43 51 54 152 130 189 143 19 6 57 12 83 13 26 1 40 -2 31 -5z"/>
<path d="M383 3445 c-40 -18 -73 -36 -73 -40 0 -3 15 2 33 11 17 10 57 28 87
40 30 13 48 23 40 23 -8 0 -48 -15 -87 -34z"/>
<path d="M493 3450 c16 -5 35 -17 44 -27 13 -17 13 -17 4 3 -11 23 -32 35 -59
33 -9 0 -4 -5 11 -9z"/>
<path d="M8172 3444 c-12 -8 -22 -20 -22 -26 0 -7 6 -4 13 5 6 10 26 21 42 26
21 7 24 10 10 10 -11 1 -31 -6 -43 -15z"/>
<path d="M6075 5040 c-15 -10 -47 -21 -71 -25 -36 -5 -50 -14 -83 -54 -88
-105 -137 -280 -107 -382 50 -166 195 -217 330 -117 79 59 115 125 84 156 -22
22 -46 12 -87 -37 -69 -82 -143 -103 -200 -55 -59 49 -64 165 -12 281 34 76
62 111 100 124 27 10 35 8 62 -15 36 -30 42 -31 63 -10 20 19 20 29 0 87 -20
60 -41 72 -79 47z"/>
<path d="M5483 4872 c-19 -12 -49 -92 -92 -242 -23 -78 -48 -148 -56 -157 -10
-9 -13 -22 -9 -32 8 -19 8 -24 -2 -118 -7 -71 -7 -72 20 -84 39 -18 54 2 72
102 l16 86 84 41 c46 23 86 42 89 42 3 0 18 -26 34 -59 53 -104 97 -141 129
-109 20 20 14 53 -18 96 -16 23 -72 127 -125 231 -90 181 -117 219 -142 203z
m56 -220 l30 -59 -55 -26 c-30 -15 -54 -22 -54 -17 0 13 43 160 47 160 1 0 16
-26 32 -58z"/>
<path d="M4927 4732 c-15 -16 -17 -45 -17 -193 0 -96 -3 -191 -6 -212 -6 -36
-7 -37 -21 -17 -8 12 -49 89 -90 173 -42 84 -82 160 -91 170 -21 24 -49 21
-68 -7 -14 -22 -15 -55 -7 -302 9 -274 9 -276 32 -295 21 -17 26 -18 45 -5 20
13 21 20 18 197 l-4 184 65 -116 c94 -169 116 -199 143 -199 43 0 55 36 64
202 5 84 10 167 10 183 0 23 19 -7 81 -130 90 -180 105 -201 142 -191 47 11
43 39 -23 150 -33 57 -88 166 -121 242 -77 178 -109 213 -152 166z"/>
<path d="M4250 4591 c-30 -10 -74 -27 -97 -39 -23 -12 -56 -22 -72 -22 -41 0
-47 -27 -22 -98 11 -32 32 -116 46 -188 44 -214 72 -291 115 -314 31 -17 93
-11 186 15 121 35 142 44 149 66 8 23 -11 59 -31 59 -9 0 -59 -13 -112 -30
-150 -46 -152 -45 -174 20 -11 30 -20 72 -21 93 l-2 38 128 48 c71 26 132 53
136 60 12 19 2 50 -20 61 -13 8 -48 -1 -140 -35 -67 -25 -125 -42 -129 -38 -3
4 -15 43 -24 87 -15 66 -16 80 -5 87 37 24 131 52 189 56 88 7 123 39 84 77
-21 22 -113 20 -184 -3z"/>
<path d="M7239 4533 c-12 -21 -30 -47 -40 -58 -10 -11 -23 -51 -29 -90 -6 -39
-23 -124 -37 -190 -24 -111 -25 -132 -19 -280 3 -88 12 -193 21 -233 8 -40 12
-88 10 -105 l-5 -32 10 30 c7 22 5 52 -6 110 -8 44 -18 150 -21 235 -5 142 -4
165 20 275 14 66 31 151 37 190 6 39 19 79 29 90 22 24 65 95 58 95 -3 0 -15
-17 -28 -37z"/>
<path d="M3840 4444 c-41 -13 -104 -31 -139 -39 -36 -9 -71 -20 -78 -26 -19
-16 -16 -43 6 -63 18 -16 23 -16 81 -1 34 9 63 15 65 13 17 -19 85 -337 85
-397 l0 -51 -42 0 c-45 0 -108 30 -108 52 0 42 -73 56 -85 17 -22 -70 87 -159
193 -159 67 0 86 8 105 40 32 54 16 233 -38 435 -27 97 -25 105 28 105 37 0
70 34 61 63 -8 26 -4 23 -34 30 -14 3 -57 -5 -100 -19z"/>
<path d="M1812 4287 l76 -76 46 -148 c80 -260 94 -341 102 -603 4 -127 10
-232 13 -234 3 -2 2 100 -2 227 -9 266 -25 361 -105 614 l-47 149 -80 73 -80
74 77 -76z"/>
<path d="M6879 4287 l-77 -72 -46 -146 c-74 -237 -94 -346 -101 -559 -3 -102
-7 -210 -10 -240 -2 -35 -1 -46 4 -30 4 14 11 121 14 237 8 244 26 346 103
592 l46 146 77 72 c42 40 74 72 71 72 -3 0 -39 -32 -81 -72z"/>
<path d="M3237 4218 c-13 -35 -41 -120 -60 -191 -20 -70 -43 -134 -52 -143
-17 -18 -19 -36 -6 -50 6 -5 6 -27 0 -56 -14 -63 -8 -118 14 -132 38 -24 60
18 82 154 5 33 11 39 90 78 47 23 87 42 90 42 3 0 19 -28 36 -62 50 -101 95
-138 127 -106 19 19 14 45 -15 89 -16 23 -73 130 -128 238 -89 173 -103 196
-126 199 -24 3 -29 -3 -52 -60z m68 -240 c-27 -14 -52 -24 -54 -22 -2 2 7 40
20 84 l23 80 31 -57 31 -58 -51 -27z"/>
<path d="M2573 4113 c-20 -7 -16 -37 26 -209 22 -87 47 -199 57 -249 29 -150
47 -169 137 -139 77 25 192 81 226 110 66 55 12 114 -59 64 -39 -28 -171 -90
-191 -90 -13 0 -20 16 -28 68 -19 112 -92 406 -107 430 -14 21 -34 26 -61 15z"/>
<path d="M2096 4061 c32 -23 45 -44 71 -112 72 -189 143 -575 143 -784 0 -49
4 -95 8 -102 13 -20 3 167 -19 347 -37 305 -117 584 -187 648 -19 17 -40 32
-45 32 -6 0 8 -13 29 -29z"/>
<path d="M6593 4067 c-65 -45 -154 -343 -192 -647 -20 -158 -35 -420 -20 -345
4 22 8 74 8 116 2 194 70 560 139 743 31 84 43 103 76 127 45 34 36 38 -11 6z"/>
<path d="M5409 3840 c-37 -11 -91 -49 -123 -87 -63 -74 -69 -152 -15 -197 39
-33 80 -40 155 -26 135 26 214 -19 184 -104 -31 -88 -187 -136 -267 -81 -36
24 -61 22 -78 -5 -21 -34 32 -89 99 -101 176 -32 372 120 334 258 -24 89 -80
128 -178 124 -188 -7 -182 -8 -191 15 -20 56 71 134 157 134 63 0 94 15 94 44
0 13 -7 27 -16 30 -22 8 -123 6 -155 -4z"/>
<path d="M4995 3735 c-55 -12 -134 -32 -175 -43 -41 -12 -97 -24 -123 -28 -45
-6 -77 -24 -77 -44 0 -4 8 -18 18 -31 18 -22 21 -22 88 -11 38 7 77 13 87 15
21 2 60 -95 124 -308 20 -66 40 -126 46 -132 14 -18 54 -16 61 3 13 33 4 70
-60 265 -36 110 -64 203 -61 205 2 2 46 13 97 24 99 21 120 32 120 61 0 18
-25 50 -38 48 -4 0 -52 -11 -107 -24z"/>
<path d="M1521 3504 c75 -83 152 -232 189 -362 17 -59 53 -165 80 -237 27 -71
54 -158 61 -193 6 -34 14 -61 16 -58 11 10 -21 129 -67 251 -27 72 -63 178
-80 237 -40 140 -116 283 -194 363 l-58 60 53 -61z"/>
<path d="M4228 3551 c-72 -15 -83 -45 -49 -142 10 -30 26 -97 35 -149 25 -137
76 -299 98 -311 25 -13 58 6 58 34 0 12 -9 51 -20 87 -11 36 -20 66 -20 68 0
1 15 2 33 2 48 0 196 -44 249 -75 38 -21 51 -24 68 -15 31 17 26 55 -12 83
-39 28 -132 67 -160 67 -16 0 -10 10 30 54 56 62 66 93 49 159 -22 84 -136
148 -261 146 -34 -1 -78 -5 -98 -8z m198 -97 c75 -26 97 -72 61 -125 -27 -40
-87 -76 -143 -85 l-41 -6 -8 58 c-4 33 -15 83 -25 112 -20 56 -19 57 30 65 34
5 77 -2 126 -19z"/>
<path d="M7189 3526 c-81 -76 -165 -230 -214 -394 -20 -68 -56 -174 -79 -235
-42 -107 -67 -199 -65 -235 0 -9 9 19 19 63 10 44 37 125 58 181 22 55 57 156
77 225 44 148 117 287 194 371 60 65 63 74 10 24z"/>
<path d="M3851 3355 c-17 -47 -43 -131 -58 -188 -15 -56 -35 -113 -45 -126
-12 -16 -15 -28 -9 -40 6 -10 5 -47 -2 -93 -12 -83 -4 -108 34 -108 28 0 46
37 59 121 l12 76 57 28 c31 15 71 34 88 41 l33 14 29 -58 c58 -115 104 -147
138 -96 12 19 10 25 -14 60 -15 21 -75 131 -133 244 -93 182 -108 205 -131
208 -25 3 -29 -2 -58 -83z m101 -139 l27 -54 -58 -28 -57 -29 25 83 c13 45 27
82 31 82 3 0 18 -24 32 -54z"/>
<path d="M6825 3354 c-76 -62 -83 -71 -133 -176 -74 -153 -127 -334 -152 -525
-12 -85 -19 -158 -16 -161 3 -3 6 -1 6 5 0 5 9 78 20 161 25 184 77 364 149
517 48 102 57 114 117 160 59 45 104 86 93 84 -2 0 -40 -29 -84 -65z"/>
<path d="M1868 3348 c81 -63 81 -63 136 -183 73 -162 120 -326 145 -514 12
-85 21 -159 21 -164 0 -6 3 -8 6 -5 3 3 -4 77 -16 164 -26 192 -72 355 -146
519 -54 120 -55 121 -134 183 -44 34 -83 62 -87 62 -3 0 30 -28 75 -62z"/>
<path d="M1467 2620 c3 -43 0 -64 -16 -95 -19 -38 -19 -39 -1 -17 26 31 34 83
22 129 -10 36 -10 34 -5 -17z"/>
<path d="M7226 2648 c-10 -39 -7 -76 10 -118 9 -23 18 -39 20 -37 3 2 -3 21
-12 43 -11 26 -14 54 -11 86 6 51 3 62 -7 26z"/>
<path d="M1524 2521 c0 -25 -9 -62 -18 -81 -14 -28 -14 -31 -1 -15 27 34 46
127 28 138 -5 3 -8 -16 -9 -42z"/>
<path d="M7161 2535 c0 -37 30 -125 44 -125 3 0 -2 14 -11 32 -9 18 -20 55
-24 83 -7 49 -8 49 -9 10z"/>
<path d="M2260 2410 c-58 -21 -100 -39 -94 -39 6 -1 60 17 120 38 60 22 102
40 94 40 -8 0 -62 -18 -120 -39z"/>
<path d="M6405 2411 c61 -20 117 -41 125 -46 11 -6 12 -5 4 4 -12 13 -205 81
-227 80 -6 0 38 -17 98 -38z"/>
<path d="M1267 2386 c-9 -13 -35 -42 -59 -66 l-43 -43 40 33 c34 28 85 87 85
97 0 9 -9 0 -23 -21z"/>
<path d="M7410 2407 c0 -16 45 -67 84 -97 l41 -31 -39 35 c-21 19 -49 50 -62
67 -13 18 -24 30 -24 26z"/>
<path d="M1114 2367 c-23 -18 -50 -38 -60 -45 -10 -7 0 -3 23 9 24 13 53 33
65 46 29 31 21 28 -28 -10z"/>
<path d="M7571 2364 c32 -24 100 -63 89 -51 -9 10 -112 77 -118 77 -3 0 10
-12 29 -26z"/>
<path d="M1400 2364 c0 -5 -20 -31 -43 -57 -24 -26 -40 -47 -36 -47 12 0 92
100 85 107 -3 4 -6 2 -6 -3z"/>
<path d="M7318 2323 c16 -21 40 -47 53 -58 13 -11 1 6 -26 38 -55 64 -73 77
-27 20z"/>
</g>
</svg>
